<?xml version="1.0" encoding="utf-8"?>
<!-- Generator: Adobe Illustrator 27.5.0, SVG Export Plug-In . SVG Version: 6.00 Build 0)  -->
<svg version="1.1" xmlns="http://www.w3.org/2000/svg" xmlns:xlink="http://www.w3.org/1999/xlink" x="0px" y="0px"
	 viewBox="0 0 500 500" style="enable-background:new 0 0 500 500;" xml:space="preserve">
<g id="BACKGROUND">
	<circle style="fill:#ECF6E1;" cx="250" cy="250" r="189.908"/>
</g>
<g id="OBJECTS">
	<g>
		<path style="fill:#FFFFFF;" d="M439.807,291.933c-0.765-0.996-1.642-1.879-2.514-2.767c-2.891-2.945-6.105-5.518-9.363-8.081
			c1.233-0.786,1.314-1.039,0.528-2.17c-1.324-1.895-3.085-3.343-5.039-4.555c-4.576-2.827-9.47-4.996-14.515-6.848
			c-6.234-2.288-12.652-3.925-19.242-5.211c1.712-1.583,3.365-2.972,4.862-4.506c8.69-8.921,15.247-19.204,19.678-30.844
			c3.203-8.426,5.368-17.067,5.26-26.16c-0.022-2.014,0.021-4.033-0.538-6.008c-0.237-0.84-0.662-1.357-1.588-1.378
			c-0.081-0.528-0.172-1.034-0.237-1.545c-0.242-1.798-0.436-3.613-2.39-4.506c-0.328-0.156-0.215-0.528-0.242-0.818
			c-0.355-3.451-0.581-6.913-1.26-10.326c-1.249-6.326-3.257-12.345-6.859-17.756c-0.673-1.018-1.464-1.906-2.487-2.579
			c-0.996-0.646-1.825-0.544-2.59,0.404c-0.926,1.152-1.561,2.466-2.159,3.796c-2.557,5.702-6.148,10.692-10.358,15.274
			c-0.291,0.318-0.625,0.431-1.018,0.474c-4.393,0.506-8.792,1.039-13.228,0.533c-1.061-0.124-2.121-0.269-3.182-0.404
			c1.459-0.436,2.767-0.942,3.753-2.046c1.211-1.351,0.872-2.746-0.765-3.526c-0.888-0.425-1.857-0.404-2.913-0.614
			c1.766-2.159,3.289-4.296,4.544-6.601c2.369-4.355,4.011-8.921,3.672-13.987c-0.129-1.879-1.195-2.396-2.762-1.405
			c-0.248,0.156-0.506,0.296-0.748,0.441c-0.183-0.253-0.108-0.458-0.049-0.662c1.486-4.975,2.1-10.068,1.997-15.252
			c-0.032-1.502-0.242-3.01-1.039-4.334c-0.775-1.303-1.944-1.287-2.708,0.005c-0.269,0.458-0.474,0.953-0.818,1.658
			c-0.183-1.728,0.129-3.166,0.135-4.609c0.022-4.474-0.318-8.916-0.942-13.352c-1.184-8.447-3.736-16.453-7.613-24.034
			c-1.599-3.117-3.65-5.938-6.579-7.995c-2.337-1.647-4.614-1.217-6.213,1.152c-0.915,1.357-1.696,2.794-2.24,4.339
			c-1.093,3.09-2.617,5.965-4.253,8.792c-3.903,6.741-8.011,13.352-13.26,19.145c-6.719,7.424-12.792,15.312-17.535,24.157
			c-0.409,0.764-0.872,1.028-1.712,0.91c-3.209-0.436-6.423-0.366-9.637-0.016c-8.307,0.91-16.232,3.107-23.651,6.999
			c-0.436,0.231-0.77,0.339-1.292,0.075c-6.794-3.397-14.036-5.492-21.369-7.327c-4.608-1.147-9.33-1.831-13.885-3.214
			c-7.155-2.175-13.363-6.165-19.506-10.267c-2.288-1.529-4.49-3.182-7.117-4.113c-2.988-1.055-4.409-0.474-5.906,2.283
			c-1.001,1.852-1.341,3.855-1.513,5.917c-0.388,4.598,0.506,9.023,1.728,13.422c0.98,3.499,2.25,6.891,3.602,10.267
			c-0.253-0.167-0.447-0.366-0.619-0.581c-1.857-2.256-3.629-4.598-5.782-6.59c-2.25-2.078-4.587-4.054-7.484-5.179
			c-1.814-0.711-2.423-0.226-2.229,1.701c-0.275-0.215-0.522-0.382-0.738-0.581c-2.52-2.294-5.26-4.302-8.167-6.068
			c-2.606-1.583-5.244-3.096-8.27-3.769c-0.797-0.178-1.642-0.35-2.132,0.366c-0.447,0.651-0.043,1.416,0.339,2.051
			c2.95,4.894,5.174,10.057,5.863,15.791c0.231,1.971,0.56,3.936,0.318,5.982c-1.599-0.888-2.337-0.625-2.918,0.969
			c-0.161,0.442-0.269,0.905-0.377,1.362c-0.781,3.424-1.642,6.827-2.762,10.165c-2.11,6.315-5.109,12.259-7.688,18.381
			c-0.641,1.524-1.421,2.988-2.159,4.533c-1.588-1.567-3.112-2.956-4.501-4.463c-4.081-4.426-6.644-9.739-8.097-15.468
			c-1.109-4.372-0.355-8.851,0.786-13.217c1.007-3.855,2.579-7.527,3.521-11.392c0.49-2.019,0.081-2.482-2.008-2.32
			c-0.258,0.016-0.506,0.092-0.759,0.135c-4.14,0.748-7.252,3.176-10.009,6.159c-0.808,0.872-1.55,1.809-2.568,3.004
			c0.258-1.174,0.495-1.949,0.581-2.74c0.113-1.109-0.549-1.62-1.61-1.292c-0.921,0.28-1.68,0.851-2.396,1.47
			c-8.113,7.058-14.644,15.344-19.204,25.099c-2.644,5.659-4.415,11.602-4.625,17.901c-0.14,3.984-0.28,7.995,0.743,11.909
			c0.915,3.494,2.17,6.865,4.216,9.89c0.097,0.14,0.178,0.275-0.021,0.458c-2.218-2.304-4.151-4.797-5.545-7.699
			c-1.723-3.596-2.127-7.462-2.541-11.344c-0.161-1.524-0.231-3.09-0.824-4.522c-0.748-1.82-2.46-2.046-3.726-0.544
			c-0.948,1.125-1.567,2.45-2.207,3.855c-1.298-0.458-2.132,0.237-2.837,1.179c-0.538,0.721-1.066,1.459-1.54,2.218
			c-2.606,4.178-4.431,8.706-5.906,13.384c-1.933,6.148-3.09,12.464-3.812,18.854c-0.361,3.155-0.608,6.331-0.538,9.519
			c0.027,1.19,0.404,2.369,0.129,3.602c-0.888-0.301-1.254,0.075-1.464,0.915c-0.948,3.85-0.533,7.704,0.092,11.516
			c1.281,7.86,4.027,15.209,8.151,22.047c2.751,4.56,5.626,9.029,9.239,13.045c-0.199,0.178-0.339,0.334-0.506,0.452
			c-4.076,2.945-8.162,5.895-12.641,8.205c-4.646,2.401-9.551,3.505-14.789,2.186c-0.635-0.161-1.432-0.748-1.981,0.145
			c-0.517,0.845,0.183,1.427,0.592,2.051c0.043,0.07,0.221,0.183,0.091,0.242c-4.996-0.447-9.239-2.627-13.336-5.195
			c-1.631-1.023-3.23-2.121-5.072-2.773c-1.901-0.678-2.902-0.097-3.451,1.831c-0.544,1.922,0.178,3.548,0.996,5.163
			c0.651,1.281,1.4,2.514,2.132,3.806c-1.798,0.167-2.606,0.974-2.837,2.686c-0.312,2.32,0.21,4.539,0.931,6.692
			c3.01,8.969,8.092,16.781,14.569,23.479c11.344,11.732,24.707,20.152,41.235,22.58c0.985,0.145,1.384,0.565,1.669,1.524
			c1.653,5.524,3.682,10.891,7.128,15.613c1.567,2.154,3.435,3.973,5.955,4.969c1.524,0.603,1.997,0.393,2.827-1.055
			c0.797,1.039,1.588,2.051,2.358,3.08c9.492,12.684,22.128,20.356,37.585,23.479c2.1,0.425,4.286,0.522,6.374-0.199
			c1.405-0.484,1.615-1.437,0.673-2.573c-0.301-0.361-0.624-0.705-0.937-1.05c0.953-0.899,0.964-0.953,0.189-2.003
			c-0.328-0.452-0.684-0.883-1.007-1.341c-3.01-4.264-4.496-9.034-4.598-14.224c-0.081-4.226-0.221-8.469,0.845-12.674
			c0.129,0.113,0.21,0.156,0.248,0.221c0.075,0.151,0.14,0.312,0.188,0.474c2.304,8.442,6.757,15.737,12.167,22.488
			c3.839,4.786,8.824,8.302,13.831,11.726c7.677,5.255,16.071,8.458,25.536,8.318c0.948-0.016,1.809-0.07,2.143-1.179
			c0.921,0.501,1.723,0.996,2.574,1.378c0.711,0.318,1.54,0.598,2.143-0.135c0.641-0.775-0.113-1.324-0.506-1.906
			c-0.065-0.097-0.065-0.151,0.14-0.215c2.697,1.276,5.61,2.121,8.598,2.692c4.194,0.808,8.366,0.727,12.517-0.296
			c0.84-0.21,1.707-0.479,1.944-1.465c0.242-1.039-0.538-1.54-1.227-2.073c-1.427-1.098-2.875-2.186-4.275-3.322
			c-5.508-4.49-8.205-10.536-9.637-17.503c0.738,0.7,1.303,1.287,1.922,1.82c0.646,0.56,1.314,1.109,2.019,1.599
			c9.012,6.277,18.876,10.434,29.816,11.844c5.384,0.689,10.714,0.328,15.893-1.373c1.002-0.328,2.229-0.506,2.574-1.858
			c0.075-0.302,0.452-0.345,0.754-0.404c5.265-1.034,10.423-2.455,15.511-4.162c12.367-4.151,22.644-11.215,30.505-21.702
			c0.948-1.265,1.561-2.805,2.773-3.839c7.026-5.998,12.69-13.051,16.771-21.347c0.199-0.409,0.425-0.711,0.883-0.84
			c2.993-0.851,5.755-2.267,8.426-3.763c5.825-3.268,10.579-7.812,14.38-13.287c4.512-6.493,8.792-13.147,13.95-19.167
			c4.452-5.195,8.738-10.525,14.52-14.396c5.675-3.796,11.748-6.525,18.542-7.575c2.369-0.366,4.765-0.608,7.08-1.271
			C440.739,295.739,441.315,293.903,439.807,291.933z M236.578,189.919c3.133,1.292,6.068,2.105,9.33,2.681
			c-2.067,2.148-4.28,3.65-6.725,5.115C238.467,195.12,237.805,192.601,236.578,189.919z M239.199,254.461
			c2.977-7.936,3.553-16.162,3.214-24.534c4.598-0.764,9.083-1.362,13.917-1.669c-1.89,0.678-3.494,1.233-5.072,1.836
			c-0.926,0.355-1.782,0.856-2.525,1.518c-1.314,1.179-1.125,2.611,0.474,3.386c1.265,0.614,2.649,0.694,4.022,0.624
			c1.454-0.081,2.896-0.258,4.345-0.393C250.592,240.894,245.192,247.936,239.199,254.461z"/>
		<g>
			<path style="fill:#E77F7E;" d="M331.615,383.958c2.329-0.21,4.341-1.219,6.345-2.301c0.722-0.39,1.304-1.299,2.316-0.932
				c0.218,0.486-0.045,0.906-0.27,1.103c-1.704,1.491-2.906,3.458-4.723,4.849c-1.389,1.063-2.518,2.426-3.843,3.585
				c-4.077,3.566-8.625,6.375-13.486,8.685c-6.059,2.88-12.448,4.834-18.934,6.496c-2.863,0.734-5.68,1.685-8.696,1.54
				c-0.251-0.012-0.502-0.028-0.901-0.05c1.324-2.963,3.101-5.498,5.204-7.818c3.272-3.61,7.272-6.258,11.467-8.649
				c3.017-1.72,6.15-3.299,8.664-5.742c2.725-2.649,5.001-5.686,6.581-9.155c1.421-3.119,1.528-6.365,0.574-9.695
				c-1.435-5.01-2.498-10.081-2.458-15.35c0.017-2.294,0.552-4.431,1.294-6.534c1.24-3.517,3.006-6.721,5.649-9.435
				c0.932-0.957,1.89-1.125,3.039-0.899c4.11,0.809,8.265,1.176,12.44,0.991c4.391-0.194,8.581-1.285,12.428-3.479
				c1.677-0.956,3.216-2.104,4.413-3.81c0.419,0.56,0.183,0.941-0.002,1.363c-0.174,0.395-0.719,0.686-0.418,1.244
				c0.449,0.094,0.579-0.313,0.837-0.503c1.374-1.013,2.597-0.616,3.194,0.951c0.458,1.204,0.588,2.472,0.725,3.707
				c0.832,7.521-0.137,14.747-3.514,21.624c-2.19,4.46-4.828,8.577-8.033,12.37c-1.981,2.344-3.851,4.796-6.142,6.841
				c-3.343,2.983-6.712,5.952-10.861,7.844C333.545,383.234,332.535,383.487,331.615,383.958z"/>
			<path style="fill:#E77F7E;" d="M146.147,150.152c-0.453,1.681-0.897,3.295-1.317,4.916c-0.075,0.288-0.347,0.702,0.165,0.842
				c0.343,0.094,0.444-0.265,0.628-0.504c2.701-3.501,5.458-6.948,9.367-9.227c1.86-1.084,3.829-1.675,6.056-1.564
				c0.229,1.736-0.563,3.16-1.116,4.562c-1.701,4.316-3.154,8.708-3.946,13.269c-0.803,4.622,0.064,9.09,2.012,13.333
				c1.547,3.37,3.194,6.708,5.462,9.654c2.3,2.988,5.046,5.574,7.885,8.057c1.436,1.256,2.877,2.502,4.646,3.757
				c-3.249,1.639-6.019,3.866-9.408,4.918c-7.714,2.395-15.629,4.029-23.437,6.068c-1.78,0.465-3.64,0.623-5.463,0.924
				c-2.122,0.351-4.043,1.148-5.691,2.556c-1.919,1.64-3.949,3.16-5.57,5.267c-2.385-3.16-4.099-6.561-5.071-10.294
				c-0.832-3.197-1.265-6.447-1.367-9.785c-0.273-8.947,2.134-17.103,6.45-24.861c2.898-5.209,6.361-9.949,10.319-14.387
				c2.311-2.591,4.773-4.988,7.475-7.152C144.746,150.085,145.323,149.87,146.147,150.152z"/>
			<path style="fill:#E77F7E;" d="M107.255,286.399c-2.012-2.771-3.75-5.655-5.441-8.566c-1.738-2.992-3.296-6.083-4.422-9.359
				c-1.408-4.096-2.617-8.242-3.227-12.559c-0.408-2.891-0.503-5.776-0.483-8.679c0.004-0.57-0.05-1.174,0.84-1.123
				c0.79,1.478,0.751,3.357,2.096,4.595c-0.875-4.367-1.357-8.747-1.102-13.163c0.247-4.266,0.753-8.507,1.481-12.731
				c0.91-5.28,2.125-10.471,3.937-15.506c1.457-4.048,3.174-7.992,5.678-11.534c0.4-0.566,0.78-1.227,1.695-1.26
				c0.328,1.26-0.128,2.535,0.153,3.765c0.564-2.832,1.637-5.4,3.322-7.705c0.372-0.508,0.747-1.189,1.51-0.936
				c0.606,0.201,0.939,0.697,1.093,1.423c0.395,1.869,0.601,3.77,0.698,5.651c0.329,6.337,2.591,11.794,6.908,16.439
				c0.836,0.9,1.595,1.847,2.593,2.6c0.863,0.651,1.578,1.412,1.465,2.721c-0.079,0.918,0.245,1.867,0.354,2.806
				c0.458,3.95-0.786,7.265-3.665,10.014c-1.679,1.603-3.351,3.229-4.882,4.971c-3.109,3.538-3.97,7.49-1.998,11.94
				c1.776,4.007,3.418,8.067,4.279,12.399c1.264,6.36,0.239,12.217-3.683,17.48c-0.475,0.637-1.001,1.154-1.771,1.43
				c-1.241,0.444-2.178,1.364-3.191,2.157C110.172,284.702,108.819,285.677,107.255,286.399z"/>
			<path style="fill:#E77F7E;" d="M82.964,305.624c-0.421-0.981-1.894-1.244-1.572-2.951c4.016,1.665,8.085,1.585,12.202,0.378
				c0.264,1.18,0.433,2.193,0.721,3.171c0.83,2.819,2.261,5.343,4.385,7.342c2.319,2.182,3.097,4.861,3.243,7.875
				c0.13,2.668,0.068,5.335-0.02,8.001c-0.138,4.169,1.122,7.86,3.736,11.112c3.045,3.788,5.921,7.73,9.785,10.767
				c1.15,0.904,0.725,2.223,0.903,3.318c0.345,2.123,0.707,4.239,1.226,6.323c0.131,0.525,0.082,0.991,0.111,1.591
				c-2.05-0.024-3.96-0.426-5.819-0.876c-4.389-1.062-8.61-2.65-12.581-4.82c-5.997-3.277-12.026-6.533-17.244-11.009
				c-4.147-3.558-7.941-7.457-11.122-11.953c-2.887-4.082-5.49-8.312-7.534-12.867c-1.365-3.043-2.513-6.175-2.508-9.591
				c0.001-0.946-0.064-2.013,0.906-2.488c0.969-0.474,1.766,0.213,2.486,0.834c0.114,0.098,0.232,0.191,0.644,0.528
				c-1.185-2.206-2.175-4.089-3.203-5.951c-0.798-1.445-1.202-2.942-1.115-4.623c0.104-2.014,1.018-2.607,2.914-1.724
				c2.647,1.232,5.041,2.902,7.551,4.37c2.984,1.745,6.161,2.905,9.588,3.363C81.42,305.847,82.208,306.363,82.964,305.624z"/>
			<path style="fill:#E77F7E;" d="M228.697,414.65c1.514,2.015,3.761,2.842,5.008,4.765c-2.385,0.28-3.899-1.427-5.902-2.404
				c0.243,0.767,1.323,1.059,0.875,2.003c-1.698,0.433-3.439,0.001-5.135-0.203c-3.211-0.387-6.401-0.955-9.468-2.107
				c-5.212-1.957-9.953-4.732-14.435-7.99c-2.777-2.019-5.577-4.039-7.979-6.486c-2.668-2.717-5.104-5.663-7.059-8.962
				c-0.718-1.211-1.668-2.3-2.179-3.833c1.569,0.164,2.942,0.463,4.345,0.528c1.627,0.076,3.158-0.224,4.663-0.797
				c2.689-1.025,5.383-2.035,8.081-3.036c2.67-0.991,4.975-2.687,7.561-3.853c4.406-1.987,8.919-3.272,13.817-2.926
				c7.018,0.495,12.332,3.594,15.54,9.981c0.889,1.771,1.743,3.559,3.41,4.762c0.587,0.423,0.673,1.084,0.79,1.673
				c0.661,3.319,1.711,6.516,3.201,9.536c1.768,3.582,4.311,6.565,7.419,9.111c1.345,1.102,2.758,2.112,4.101,3.213
				c0.416,0.341,0.627,0.635,0.531,1.137c-0.09,0.47-0.517,0.55-0.867,0.599c-2.454,0.344-4.851,0.802-7.406,0.627
				c-3.537-0.242-6.942-0.829-10.315-1.865C234.409,417.236,231.606,416.179,228.697,414.65z"/>
			<path style="fill:#E77F7E;" d="M116.625,352.845c0.616-0.073,0.819,0.323,1.097,0.559c4.501,3.824,9.547,5.666,15.511,4.446
				c5.323-1.089,10.54-0.618,15.563,1.461c4.396,1.819,8.028,4.702,10.612,8.684c2.68,4.13,5.374,8.162,9.406,11.175
				c1.665,1.245,2.943,3.004,4.416,4.511c0.324,0.331,0.264,0.706,0.265,1.082c0.007,1.893-0.052,3.788,0.014,5.679
				c0.186,5.31,1.964,10.045,5.275,14.202c0.335,0.42,0.348,0.41,0.257,1.254c-0.494,0.161-0.894-0.186-1.318-0.308
				c-0.414-0.119-0.762-0.466-1.234-0.61c1.217,1.487,3.108,2.389,3.834,4.462c-2.774,0.77-5.423,0.486-7.987-0.224
				c-5.56-1.539-11.011-3.422-16.128-6.123c-2.954-1.559-5.66-3.499-8.208-5.683c-2.503-2.146-4.98-4.321-7.197-6.752
				c-2.941-3.226-5.792-6.536-8.393-10.052c-0.468-0.632-1.072-1.165-1.701-1.682c0.614,1.87,2.084,3.366,2.252,5.457
				c-1.602,0.511-2.663-0.525-3.637-1.342c-3.425-2.876-5.54-6.654-7.282-10.725c-1.643-3.841-2.992-7.763-3.934-11.82
				C117.522,357.972,117.115,355.408,116.625,352.845z"/>
			<path style="fill:#E77F7E;" d="M202.128,146.277c-1.066-1.826-2.405-3.505-2.859-5.706c1.567-0.303,2.598,0.669,3.638,1.331
				c3.69,2.351,6.737,5.411,9.455,8.834c1.506,1.897,3.295,3.574,4.761,5.498c1.836,2.41,3.458,4.982,5.199,7.465
				c0.933,1.331,2.042,2.514,3.229,3.624c0.41,0.383,0.85,0.758,0.558,1.437c-0.599,0.298-1.13,0.017-1.673-0.236
				c-0.915-0.425-1.787-0.927-2.75-1.275c-0.746-0.27-1.366-0.243-1.89,0.233c-0.575,0.522-0.25,1.227,0.014,1.762
				c0.516,1.044,1.158,2.025,1.823,3.161c-1.875,0.204-3.531-0.206-5.186-0.555c-3.167-0.667-6.361-1.09-9.601-0.981
				c-5.826,0.196-10.512,2.751-14.099,7.229c-2.417,3.017-4.57,6.245-6.844,9.376c-2.392,3.291-5.189,6.188-8.384,8.713
				c-0.752,0.594-1.256,0.526-1.976-0.057c-1.416-1.146-2.864-2.249-4.225-3.465c-0.724-0.647-0.818-1.298-0.397-2.143
				c3.155-6.338,6.114-12.767,8.768-19.331c1.752-4.333,3.108-8.792,3.891-13.412c0.063-0.372,0.158-0.739,0.258-1.104
				c0.118-0.431,0.108-0.92,0.774-0.989c0.724-0.075,1.055,0.323,1.202,0.89c0.28,1.077,0.484,2.174,0.728,3.303
				c0.766-4.995,0.481-9.893-0.665-14.737c-1.118-4.725-3.703-8.811-6.139-13.059c1.522-0.353,2.575,0.18,3.582,0.652
				c5.196,2.437,9.882,5.657,14.211,9.411C199.076,143.49,200.835,144.601,202.128,146.277z"/>
			<path style="fill:#E77F7E;" d="M342.783,119.426c3.593-6.292,6.144-12.901,8.436-19.623c0.844-2.474,1.721-4.947,3.173-7.151
				c0.868-1.318,2.036-2.229,3.721-2.094c1.426,0.114,2.326,0.963,2.898,2.24c1.289,2.879,1.972,5.932,2.536,9.007
				c1.304,7.11,2.007,14.279,1.833,21.516c-0.05,2.097-0.356,4.187-0.184,6.311c1.621-1.033,2.441-0.661,2.775,1.345
				c0.736,4.431-0.11,8.703-1.426,12.914c-0.293,0.936-0.644,1.853-0.975,2.8c1.276,0.043,1.65,0.487,1.474,1.791
				c-0.204,1.516-0.812,2.891-1.669,4.143c-1.019,1.489-2.074,2.953-3.14,4.409c-0.704,0.961-1.551,1.25-2.672,0.584
				c-4.025-2.391-8.096-4.707-12.104-7.126c-4.631-2.796-9.201-5.692-14.346-7.501c-0.459-0.161-1.09-0.306-0.99-0.996
				c0.103-0.711,0.692-0.469,1.135-0.445c0.276,0.015,0.488-0.07,0.704-0.239c1.123-0.878,2.171-1.832,3.034-2.972
				c0.277-0.367,0.653-0.774,0.286-1.264c-0.343-0.459-0.764-0.092-1.167-0.036c-0.449,0.062-0.837,0.526-1.349,0.211
				c-0.164-0.531,0.318-0.621,0.593-0.842c4.724-3.807,7.681-8.728,9.089-14.586C344.835,120.214,344.4,119.703,342.783,119.426z"/>
			<path style="fill:#E77F7E;" d="M241.688,145.058c-1.443,1.182-1.406,1.42,0.117,2.367c3.731,2.321,7.613,4.282,11.933,5.286
				c1.033,0.24,2.051,0.089,3.075,0.148c0.411,0.024,0.813,0.067,0.845,0.574c0.03,0.473-0.42,0.535-0.723,0.583
				c-1.014,0.16-2.026,0.32-2.998,0.658c-1.115,0.388-1.26,0.907-0.522,1.789c1.174,1.404,4.759,2.206,6.417,1.449
				c0.466-0.213,0.95-0.392,1.435-0.559c0.436-0.15,0.867-0.138,1.151,0.293c0.33,0.5-0.072,0.779-0.369,1.086
				c-0.388,0.4-0.808,0.778-1.143,1.219c-0.412,0.543-0.751,1.142-1.121,1.716c0.392,0.55,0.482,1.388,1.426,1.094
				c0.382,0.754-0.083,1.299-0.429,1.806c-3.268,4.797-5.798,9.997-8.362,15.18c-0.358,0.724-0.674,1.471-0.988,2.216
				c-0.781,1.86-1.792,2.318-3.661,1.475c-3.478-1.57-6.508-3.822-9.354-6.337c-1.129-0.998-2.285-1.969-2.981-3.348
				c-0.809-1.602-0.634-2.344,0.861-3.46c-2.259-1.355-4.287-2.967-6.267-4.643c-0.896-0.758-1.645-1.648-2.215-2.664
				c-0.365-0.65-0.883-1.354-0.313-2.143c0.54-0.746,1.297-0.444,2.235-0.265c-0.785-0.943-1.459-1.724-2.103-2.53
				c-4.824-6.042-8.593-12.611-10.088-20.306c-0.246-1.265-0.47-2.536-0.373-3.834c0.109-1.462,0.824-1.968,2.271-1.723
				c2.956,0.501,5.205,2.382,7.601,3.929c4.611,2.978,9.07,6.198,14.09,8.496C241.315,144.693,241.454,144.865,241.688,145.058z"/>
			<path style="fill:#E77F7E;" d="M402.502,312.419c-0.025-0.396-0.074-0.729-0.061-1.06c0.107-2.831-0.872-5.262-2.503-7.552
				c-2.612-3.667-4.072-7.737-3.791-12.322c0.087-1.409,0.509-2.669,1.324-3.84c1.532-2.201,3.537-3.986,5.221-6.055
				c2.388-2.933,2.759-6.065,1.037-9.354c-0.95-1.814-1.101-3.541-0.349-5.564c2.716,0.955,5.433,1.809,8.072,2.861
				c3.834,1.528,7.578,3.265,11.123,5.402c1.566,0.944,3.037,2.003,4.323,3.313c0.431,0.439,0.743,0.905,0.776,1.567
				c-1.544,0.393-2.84-0.435-4.268-0.564c1.052,0.683,2.259,1.088,3.239,1.86c2.161,1.702,4.366,3.354,6.433,5.164
				c2.093,1.832,4.036,3.835,6.056,5.752c0.617,0.586,1.174,1.26,0.877,2.117c-0.305,0.88-1.187,1.111-2.046,1.274
				c-3.438,0.652-6.96,0.825-10.35,1.717c-5.796,1.525-11.146,4.027-16.033,7.512c-2.866,2.043-5.51,4.323-7.802,7.006
				C403.498,311.986,403.255,312.47,402.502,312.419z"/>
			<path style="fill:#E77F7E;" d="M389.908,176.012c0.145-1.223,1.191-1.746,1.799-2.503c3.475-4.328,6.615-8.838,8.645-14.052
				c0.333-0.856,0.824-1.671,1.359-2.423c0.595-0.837,1.318-0.79,2.045-0.06c2.073,2.082,3.345,4.675,4.502,7.299
				c1.716,3.89,2.999,7.943,3.783,12.126c0.49,2.613,0.775,5.264,1.162,7.897c0.159,1.083,0.355,2.162,0.509,3.246
				c0.04,0.281,0.128,0.583,0.378,0.615c1.733,0.22,1.638,1.689,1.939,2.842c0.535,2.05,0.357,4.101-0.314,6.28
				c0.9-0.534,0.774-1.423,1.188-2.006c0.185-0.26,0.23-0.611,0.716-0.59c0.536,0.023,0.501,0.397,0.541,0.699
				c0.173,1.298,0.398,2.596,0.449,3.901c0.15,3.845-0.39,7.65-0.754,11.465c-0.042,0.439-0.423,0.745-0.246,1.334
				c-2.851-0.674-4.965-2.105-6.394-4.45c-1.05-1.724-1.965-3.53-2.95-5.294c-0.721-1.291-0.805-2.715-0.818-4.131
				c-0.018-2.065,0.082-4.13,0.092-6.195c0.009-2.018-0.368-2.295-2.416-2.448c-5.768-0.432-10.571-2.575-13.493-7.89
				c-0.524-0.954-1.047-1.743,0.026-2.919C392.95,177.333,392.238,176.259,389.908,176.012z"/>
			<path style="fill:#E77F7E;" d="M290.743,230.866c-0.021-2.255,1.615-4.017,4.153-4.678c2.208-0.576,4.239,0.022,6.284,0.685
				c3.37,1.092,6.79,1.816,10.361,1.406c2.636-0.302,5.065-1.038,7.116-2.892c1.373-1.242,3.1-2.024,4.901-2.46
				c3.411-0.827,5.966,2.048,5.033,5.617c-0.965,3.689-3.254,6.477-6.179,8.793c-4.013,3.177-8.427,5.569-13.644,5.729
				c-6.562,0.202-12.574-1.173-16.593-7.081C291.119,234.432,290.749,232.703,290.743,230.866z"/>
			<path style="fill:#E77F7E;" d="M354.655,193.58c-0.362,4.481-2.692,7.767-6.297,10.254c-1.009,0.696-2.161,1.054-3.412,0.92
				c-1.534-0.164-3.091-0.229-4.592-0.552c-4.907-1.057-7.771-6.108-6.218-10.894c1.52-4.687,4.618-7.886,9.322-9.365
				c3.244-1.02,6,0.144,8.307,2.452C353.729,188.36,354.848,190.709,354.655,193.58z"/>
			<path style="fill:#E77F7E;" d="M283.796,209.746c0.003,5.752-4.191,10.422-9.291,10.515c-6.182,0.113-11.629-5.754-11.433-10.8
				c0.21-5.416,4.346-9.403,10.166-9.377C279.859,200.114,283.793,203.714,283.796,209.746z"/>
			<path style="fill:#E77F7E;" d="M287.902,410.116c0.334-0.915,0.634-1.654,1.191-2.395c1.295,0.897,2.96-0.364,4.649,0.711
				C291.676,409.343,289.906,409.74,287.902,410.116z"/>
		</g>
		<g>
			<path style="fill:#916379;" d="M389.661,262.3c6.594,1.289,13.007,2.923,19.245,5.213c5.045,1.852,9.937,4.02,14.516,6.849
				c1.954,1.207,3.711,2.655,5.037,4.555c0.787,1.129,0.703,1.383-0.525,2.166c3.254,2.566,6.469,5.138,9.36,8.082
				c0.874,0.89,1.752,1.772,2.514,2.768c1.506,1.969,0.93,3.805-1.47,4.494c-2.314,0.664-4.712,0.905-7.08,1.271
				c-6.794,1.049-12.866,3.782-18.543,7.578c-5.782,3.866-10.068,9.2-14.518,14.393c-5.16,6.022-9.438,12.677-13.949,19.17
				c-3.803,5.473-8.555,10.016-14.381,13.283c-2.673,1.499-5.436,2.917-8.424,3.764c-0.458,0.13-0.689,0.433-0.888,0.839
				c-4.081,8.299-9.742,15.354-16.768,21.348c-1.213,1.035-1.824,2.572-2.773,3.839c-7.86,10.489-18.139,17.553-30.506,21.703
				c-5.085,1.706-10.245,3.127-15.509,4.16c-0.303,0.059-0.679,0.105-0.757,0.408c-0.345,1.349-1.571,1.527-2.571,1.855
				c-5.181,1.702-10.511,2.064-15.892,1.372c-10.939-1.407-20.806-5.567-29.819-11.844c-0.703-0.49-1.369-1.038-2.018-1.599
				c-0.615-0.532-1.186-1.116-1.921-1.816c1.433,6.965,4.13,13.009,9.639,17.498c1.399,1.14,2.845,2.224,4.274,3.326
				c0.688,0.53,1.469,1.029,1.224,2.069c-0.232,0.987-1.1,1.257-1.942,1.465c-4.147,1.022-8.322,1.104-12.514,0.299
				c-2.991-0.574-5.901-1.42-8.602-2.696c-0.205,0.068-0.204,0.119-0.136,0.22c0.391,0.579,1.144,1.128,0.504,1.905
				c-0.604,0.733-1.435,0.454-2.142,0.134c-0.851-0.384-1.653-0.879-2.575-1.379c-0.332,1.111-1.193,1.165-2.142,1.179
				c-9.465,0.142-17.856-3.063-25.537-8.317c-5.007-3.425-9.99-6.938-13.83-11.729c-5.41-6.75-9.865-14.042-12.17-22.485
				c-0.045-0.163-0.11-0.323-0.186-0.474c-0.035-0.069-0.12-0.112-0.247-0.223c-1.065,4.204-0.926,8.446-0.844,12.673
				c0.1,5.19,1.586,9.963,4.596,14.227c0.322,0.456,0.678,0.887,1.008,1.338c0.771,1.054,0.765,1.105-0.192,2.002
				c0.314,0.35,0.64,0.69,0.94,1.052c0.942,1.138,0.729,2.09-0.673,2.575c-2.09,0.722-4.275,0.624-6.377,0.198
				c-15.454-3.125-28.09-10.796-37.582-23.481c-0.77-1.029-1.565-2.04-2.362-3.078c-0.829,1.448-1.299,1.656-2.822,1.055
				c-2.523-0.997-4.388-2.817-5.959-4.971c-3.441-4.717-5.474-10.086-7.126-15.614c-0.285-0.955-0.686-1.374-1.671-1.519
				c-16.529-2.432-29.889-10.849-41.234-22.582c-6.478-6.7-11.56-14.512-14.568-23.476c-0.724-2.158-1.242-4.375-0.932-6.694
				c0.229-1.714,1.039-2.52,2.836-2.685c-0.728-1.294-1.479-2.525-2.129-3.807c-0.818-1.614-1.539-3.244-0.995-5.165
				c0.546-1.926,1.547-2.508,3.451-1.831c1.838,0.654,3.44,1.748,5.071,2.771c4.096,2.572,8.336,4.748,13.335,5.199
				c0.127-0.06-0.046-0.173-0.091-0.242c-0.413-0.628-1.11-1.209-0.591-2.055c0.546-0.891,1.344-0.303,1.979-0.144
				c5.241,1.321,10.141,0.215,14.791-2.185c4.476-2.31,8.563-5.258,12.64-8.203c0.166-0.12,0.307-0.275,0.506-0.456
				c-3.611-4.017-6.487-8.483-9.237-13.043c-4.123-6.836-6.869-14.186-8.153-22.05c-0.622-3.809-1.038-7.664-0.089-11.514
				c0.207-0.838,0.572-1.215,1.461-0.916c0.277-1.23-0.103-2.411-0.129-3.602c-0.069-3.187,0.179-6.364,0.537-9.519
				c0.725-6.389,1.879-12.704,3.815-18.854c1.473-4.678,3.298-9.204,5.903-13.381c0.476-0.764,1.005-1.497,1.542-2.219
				c0.704-0.946,1.541-1.64,2.834-1.181c0.641-1.404,1.262-2.73,2.21-3.856c1.263-1.501,2.979-1.276,3.728,0.546
				c0.588,1.432,0.659,2.997,0.822,4.524c0.414,3.879,0.817,7.745,2.542,11.34c1.395,2.907,3.325,5.399,5.546,7.7
				c0.196-0.179,0.116-0.316,0.019-0.458c-2.046-3.023-3.299-6.392-4.216-9.888c-1.025-3.911-0.88-7.922-0.745-11.908
				c0.213-6.299,1.981-12.243,4.627-17.903c4.56-9.755,11.092-18.042,19.205-25.098c0.713-0.62,1.477-1.189,2.396-1.472
				c1.058-0.325,1.72,0.183,1.606,1.292c-0.081,0.793-0.323,1.57-0.577,2.741c1.017-1.195,1.758-2.129,2.565-3.002
				c2.76-2.983,5.87-5.413,10.011-6.159c0.252-0.046,0.502-0.117,0.756-0.137c2.09-0.16,2.503,0.301,2.01,2.322
				c-0.942,3.867-2.513,7.539-3.52,11.391c-1.141,4.37-1.898,8.846-0.787,13.22c1.455,5.729,4.018,11.041,8.095,15.464
				c1.393,1.511,2.917,2.9,4.503,4.465c0.74-1.545,1.518-3.011,2.159-4.534c2.578-6.12,5.58-12.062,7.691-18.381
				c1.115-3.338,1.977-6.738,2.762-10.162c0.105-0.459,0.215-0.921,0.376-1.362c0.581-1.595,1.317-1.857,2.917-0.969
				c0.243-2.048-0.085-4.013-0.32-5.98c-0.685-5.734-2.911-10.897-5.86-15.792c-0.384-0.638-0.789-1.399-0.341-2.051
				c0.492-0.716,1.334-0.544,2.132-0.366c3.028,0.673,5.667,2.187,8.271,3.767c2.91,1.766,5.649,3.772,8.167,6.07
				c0.217,0.198,0.462,0.364,0.74,0.581c-0.195-1.927,0.412-2.413,2.227-1.706c2.896,1.128,5.236,3.102,7.483,5.18
				c2.156,1.994,3.923,4.335,5.78,6.594c0.176,0.214,0.37,0.413,0.623,0.582c-1.353-3.379-2.626-6.769-3.601-10.27
				c-1.225-4.398-2.118-8.822-1.73-13.422c0.173-2.059,0.511-4.061,1.515-5.914c1.495-2.757,2.917-3.339,5.906-2.282
				c2.624,0.928,4.829,2.583,7.116,4.11c6.141,4.103,12.352,8.092,19.508,10.269c4.553,1.385,9.271,2.064,13.88,3.215
				c7.334,1.832,14.577,3.926,21.369,7.327c0.524,0.262,0.859,0.154,1.295-0.075c7.42-3.894,15.344-6.089,23.65-7
				c3.217-0.353,6.43-0.421,9.641,0.017c0.839,0.115,1.3-0.146,1.711-0.913c4.744-8.847,10.813-16.731,17.534-24.153
				c5.25-5.797,9.355-12.406,13.261-19.147c1.638-2.828,3.161-5.703,4.252-8.794c0.545-1.545,1.327-2.983,2.242-4.339
				c1.596-2.368,3.876-2.797,6.214-1.153c2.925,2.056,4.981,4.88,6.576,7.999c3.877,7.576,6.43,15.585,7.614,24.033
				c0.622,4.435,0.961,8.879,0.942,13.351c-0.006,1.443-0.32,2.88-0.137,4.608c0.345-0.706,0.549-1.203,0.819-1.66
				c0.764-1.293,1.933-1.305,2.712-0.005c0.795,1.327,1.004,2.832,1.034,4.337c0.105,5.18-0.507,10.274-1.996,15.25
				c-0.061,0.203-0.134,0.412,0.049,0.662c0.244-0.144,0.5-0.286,0.746-0.442c1.566-0.99,2.634-0.473,2.762,1.404
				c0.344,5.069-1.299,9.635-3.671,13.992c-1.255,2.305-2.779,4.438-4.541,6.599c1.051,0.208,2.025,0.186,2.91,0.611
				c1.636,0.785,1.975,2.179,0.764,3.53c-0.987,1.1-2.29,1.607-3.749,2.045c1.061,0.135,2.12,0.282,3.182,0.403
				c4.436,0.504,8.831-0.028,13.226-0.532c0.391-0.045,0.725-0.158,1.016-0.474c4.21-4.58,7.801-9.574,10.361-15.275
				c0.596-1.327,1.231-2.643,2.159-3.796c0.764-0.949,1.594-1.05,2.585-0.402c1.027,0.672,1.816,1.561,2.491,2.576
				c3.599,5.413,5.608,11.434,6.86,17.755c0.677,3.415,0.904,6.88,1.256,10.332c0.029,0.287-0.087,0.662,0.243,0.813
				c1.957,0.898,2.148,2.713,2.389,4.511c0.068,0.508,0.157,1.013,0.239,1.542c0.927,0.021,1.351,0.541,1.589,1.379
				c0.56,1.975,0.514,3.997,0.538,6.01c0.107,9.09-2.056,17.732-5.262,26.157c-4.428,11.639-10.99,21.927-19.677,30.847
				C393.027,259.331,391.377,260.718,389.661,262.3z M375.521,128.714c-0.576,0.744-0.853,1.434-1.086,2.153
				c-0.792,2.444-1.164,4.99-1.846,7.458c-0.127,0.46,0.095,1.504-0.825,1.299c-0.768-0.171-0.377-1.031-0.343-1.575
				c0.105-1.67,0.363-3.332,0.428-5.002c0.259-6.662,0.217-13.308-0.708-19.94c-1.158-8.312-3.504-16.246-7.167-23.787
				c-1.455-2.996-3.289-5.74-5.825-7.962c-2.306-2.02-3.471-1.827-5.024,0.844c-0.953,1.639-1.528,3.444-2.298,5.162
				c-4.319,9.634-10.171,18.309-16.949,26.355c-4.298,5.102-8.544,10.234-12.254,15.783c-2.077,3.106-4.049,6.282-6.063,9.43
				c-0.423,0.662-0.927,1.068-1.795,0.972c-3.993-0.442-7.97-0.215-11.954,0.247c-7.661,0.889-14.938,3.009-21.788,6.562
				c-0.466,0.242-0.919,0.334-1.332,0.047c-1.721-1.195-3.714-1.751-5.652-2.413c-9.252-3.162-18.751-5.46-28.167-8.05
				c-8.6-2.366-16.573-6.046-23.562-11.709c-1.761-1.427-3.644-2.736-5.884-3.373c-1.74-0.495-2.298-0.273-3.371,1.208
				c-1.513,2.088-1.735,4.526-1.868,6.962c-0.276,5.02,1.186,9.721,2.786,14.389c3.793,11.066,9.654,20.751,18.823,28.233
				c0.171,0.139,0.304,0.305,0.083,0.735c-3.914-0.991-7.431-3.077-11.215-4.584c4.851,8.542,11.772,14.705,20.799,18.549
				c-2.951,0.562-5.626-0.375-8.389-0.642c4.43,3.253,9.547,4.54,14.901,5.126c-0.048,0.705-0.143,1.307-0.615,1.835
				c-1.177,1.319-2.392,2.592-3.822,3.643c-5.504,4.043-11.618,6.756-18.242,8.358c-0.812,0.196-1.659,0.351-2.361,1.155
				c1.678,1.395,3.601,2.146,5.561,2.665c4.328,1.145,8.771,1.451,13.237,1.449c0.425,0,0.853,0.066,1.273,0.138
				c0.277,0.047,0.444,0.242,0.467,0.537c0.029,0.379-0.218,0.557-0.521,0.633c-0.288,0.072-0.594,0.089-0.893,0.091
				c-3.82,0.023-7.48,0.894-11.051,2.157c-1.96,0.693-3.932,1.414-5.584,3.031c2.82,0.683,5.491,0.156,8.111-0.085
				c3.487-0.32,6.838,0.142,10.204,0.859c0.681,0.145,1.08,0.452,1.066,1.248c-1.329,0.403-2.581,0.957-3.679,2.105
				c0.682-0.114,1.191-0.174,1.687-0.29c0.525-0.122,1.16-0.534,1.454,0.193c0.27,0.667-0.39,0.965-0.859,1.249
				c-1.914,1.157-3.81,2.341-5.557,3.741c-1.168,0.937-2.282,1.934-3.062,3.312c0.201,0.032,0.323,0.079,0.438,0.066
				c6.168-0.74,12.265-1.999,18.477-2.43c2.761-0.192,5.502-0.079,8.248,0.136c0.424,0.033,0.784,0.207,0.835,0.654
				c0.052,0.449-0.283,0.71-0.666,0.84c-0.403,0.137-0.826,0.218-1.243,0.307c-3.306,0.706-6.652,1.279-9.717,2.807
				c-0.783,0.39-1.624,0.75-2.002,1.705c0.818,0.64,1.698,0.868,2.67,0.915c2.209,0.106,4.366-0.264,6.515-0.676
				c1.01-0.194,1.842-0.071,2.502,0.829c-0.38,0.906-1.284,1.248-1.943,1.824c-5.496,4.798-10.33,10.223-15.127,15.697
				c-3.457,3.946-6.893,7.952-10.983,11.266c-5.887,4.77-12.572,8.253-19.571,11.019c-6.559,2.591-11.861,6.673-16.246,12.074
				c-2.823,3.478-5.43,7.088-6.509,11.556c-0.277,1.147-0.6,2.282-0.46,3.48c8.214-1.355,15.629,0.991,22.75,4.548
				c7.186,3.59,12.985,8.786,17.122,15.665c5.076-2.266,10.255-3.429,15.673-3.632c5.167-0.193,10.324,0.081,15.476,0.339
				c3.595,0.18,7.204,0.346,10.771,0.939c1.348,0.224,2.713,0.344,4.27,0.536c-2.833-3.194-5.506-6.224-7.211-9.945
				c-1.668-3.641-3.002-7.396-3.683-11.546c-0.261,0.381-0.392,0.548-0.498,0.729c-0.323,0.555-0.739,0.954-1.437,0.902
				c-0.762-0.057-0.934-0.678-1.131-1.238c-0.141-0.401-0.214-0.828-0.289-1.249c-0.109-0.61-0.395-1.067-0.855-1.516
				c-1.939-1.892-4.178-3.275-6.679-4.288c-6.138-2.488-12.446-3.635-19.116-3.165c-5.828,0.411-11.208,1.868-16.063,5.15
				c-0.71,0.48-1.448,0.919-2.192,1.344c-0.385,0.219-0.806,0.568-1.335-0.047c0.689-1.339,2.144-1.991,3.006-3.21
				c-2.318,0.999-4.465,2.283-6.478,3.8c-2.042,1.538-4.082,3.078-6.247,4.711c-0.16-1.072,0.512-1.501,1.028-1.942
				c2.057-1.761,4.122-3.516,6.241-5.201c2.261-1.797,4.635-3.434,7.498-4.15c1.244-0.311,1.747,0.077,1.806,1.162
				c13.635-4.918,26.751-4.738,39.091,3.796c0.065-3.671,1.222-7.24,2.663-10.732c0.198-0.48,0.307-1.207,1.413-1.07
				c-1.281,5.354-3.576,10.544-2.106,16.196c0.553-0.222,0.663-0.723,0.85-1.128c0.503-1.086,0.933-2.207,1.429-3.297
				c0.181-0.398,0.227-1.087,0.847-0.963c0.762,0.153,0.284,0.846,0.367,1.297c0.023,0.122-0.004,0.26-0.036,0.384
				c-0.465,1.799-0.27,3.593,0.165,5.349c1.705,6.879,4.544,13.214,9.186,18.645c0.789,0.923,1.618,1.746,2.978,2.013
				c3.652,0.718,7.299,1.501,10.892,2.468c8.381,2.254,16.726,4.639,25.091,6.954c2.029,0.562,4.104,0.884,6.243,1.178
				c-0.042-0.267-0.032-0.363-0.071-0.43c-5.408-9.487-8.286-19.921-11.279-30.302c-1.63-5.652-2.059-11.553-3.371-17.278
				c-1.672-7.294-3.777-14.377-8.994-20.083c-0.246-0.269-0.635-0.603-0.454-1.091c0.442-0.292,0.649,0.083,0.894,0.282
				c1.651,1.342,3.004,2.952,4.156,4.729c3.109,4.794,4.586,10.208,5.944,15.671c1.241,4.993,1.821,10.112,2.972,15.125
				c1.509,6.57,3.753,12.916,5.729,19.342c1.451,4.717,3.353,9.265,5.79,13.576c0.374,0.661,0.823,0.941,1.612,1.005
				c1.533,0.124,3.049,0.441,4.575,0.658c2.19,0.311,4.383,0.604,6.675,0.918c0.159-2.405,0.418-4.616,0.912-6.78
				c0.495-2.167,1.088-4.316,1.732-6.445c0.658-2.173,1.463-4.301,2.146-6.467c0.652-2.069,1.313-4.142,1.772-6.619
				c-0.777,0.841-1.274,1.431-1.826,1.963c-0.587,0.566-1.194,1.12-1.848,1.604c-2.273,1.68-3.388,1.216-3.908-1.587
				c-0.02-0.109-0.002-0.28-0.209-0.229c-6.531,6.786-11.535,10.592-13.662,10.367c0.147-0.681,0.755-0.889,1.231-1.223
				c5.726-4.013,10.816-8.616,13.919-15.051c0.221-0.458,0.506-0.712,0.994-0.577c0.594,0.165,0.654,0.648,0.492,1.14
				c-0.241,0.732-0.572,1.435-0.803,2.17c-0.449,1.426-0.811,2.865-0.108,4.509c3.551-2.238,5.736-5.536,7.953-8.789
				c2.22-3.258,4.448-6.527,4.727-10.586c1.078-0.261,0.805,0.727,1.157,1.054c0.089-0.027,0.152-0.028,0.165-0.053
				c0.074-0.15,0.15-0.301,0.201-0.46c0.726-2.263,1.211-4.547,0.751-6.945c-0.084-0.44-0.145-1.027,0.517-1.134
				c0.658-0.107,0.906,0.364,1.015,0.915c0.15,0.758,0.249,1.517,0.283,2.296c0.048,1.086,0.254,2.156,1.048,3.086
				c0.862-0.858,1.224-1.828,1.562-2.79c2.775-7.882,2.75-15.808,0.315-23.761c-0.922-3.012-2.643-5.566-4.607-7.981
				c-0.294-0.362-0.656-0.797-0.329-1.275c0.316-0.462,0.849-0.554,1.393-0.422c0.54,0.131,1.078,0.27,1.612,0.421
				c2.656,0.752,4.828,2.393,7.096,3.861c0.625,0.405,1.183,0.98,2.097,1.017c0.482-1.499,0.005-2.848-0.514-4.137
				c-2.991-7.424-7.544-13.658-14.127-18.321c-0.411-0.291-1.037-0.577-0.708-1.18c0.403-0.74,0.982-0.168,1.44,0.041
				c1.682,0.768,3.227,1.784,4.802,2.745c0.63,0.384,1.222,0.865,2.158,0.988c-0.214-0.316-0.319-0.498-0.45-0.66
				c-2.145-2.644-4.899-4.393-8.076-5.539c-0.617-0.223-1.331-0.348-1.688-1.013c0.208-0.571,0.677-0.469,1.09-0.508
				c2.721-0.251,5.386,0.16,8.048,0.654c0.852,0.158,1.734,0.428,2.548-0.068c0.029-0.528-0.266-0.807-0.522-1.085
				c-3.178-3.448-7.156-5.388-11.733-6.18c-0.407-0.07-0.95,0.082-0.966-0.558c-0.016-0.643,0.491-0.736,0.988-0.747
				c2.354-0.052,4.255-1.19,6.056-2.541c0.626-0.47,1.33-0.899,1.777-1.84c-1.105,0.031-2.022-0.069-2.957,0.093
				c-1.663,0.288-3.343,0.223-5.017,0.113c-0.509-0.033-1.11-0.152-1.122-0.824c-0.014-0.743,0.619-0.831,1.176-0.927
				c0.379-0.066,0.771-0.069,1.143-0.159c4.25-1.025,8.119-2.977,11.978-4.949c0.243-0.124,0.589-0.17,0.6-0.589
				c-1.802-0.172-3.475,0.38-5.152,0.864c-0.358,0.103-0.668,0.247-0.889-0.149c-0.212-0.38,0.018-0.667,0.299-0.886
				c0.338-0.264,0.699-0.499,1.06-0.731c2.835-1.828,5.941-3.074,9.112-4.158c5.658-1.935,11.4-3.461,17.453-3.416
				c0.863,0.006,1.77,0.034,2.583-0.458c-0.236-0.512-0.709-0.669-1.121-0.858c-1.647-0.756-3.373-1.225-5.193-1.312
				c-0.334-0.016-0.738,0.053-0.778-0.447c-0.036-0.455,0.277-0.558,0.654-0.616c0.627-0.096,1.25-0.227,1.937-0.355
				c-2.09-0.757-4.226-0.96-6.428-0.936c0.279-0.84,0.276-0.847,0.74-1.049c3.869-1.688,7.944-2.684,12.048-3.577
				c2.09-0.455,4.272-0.377,6.322-1.05c0.504-0.165,1.213-0.297,1.251-0.949c0.043-0.724-0.727-0.772-1.207-0.943
				c-5.4-1.932-10.921-2.92-16.672-2.055c-0.637,0.096-1.343,0.363-2.144-0.511c3.248-1.726,7.118-1.076,10.089-3.218
				c2.888-2.082,6.035-3.828,8.094-7.206c-1.615-0.088-2.885-0.167-4.165,0.059c-2.706,0.478-5.434,0.778-8.18,0.892
				c-3.367,0.14-6.688-0.36-9.992-0.882c-1.389-0.219-3.212,0.03-3.63-2.078c3.192-0.363,6.514-0.364,9.03-2.815
				c-0.341-0.664-0.726-0.807-1.143-0.954c-0.922-0.324-1.867-0.217-2.808-0.239c-0.449-0.011-0.994,0.176-1.266-0.378
				c-0.267-0.544,0.025-0.99,0.333-1.42c0.35-0.49,0.687-0.988,1.037-1.478c3.24-4.544,6.048-9.3,6.998-14.907
				c0.207-1.221,0.656-2.495,0.061-3.868c-2.15,1.163-3.33,3.163-4.743,5.109c-0.523-0.969-0.382-1.625-0.045-2.236
				c0.504-0.911,0.77-1.895,1.048-2.887c1.281-4.565,1.824-9.252,2.223-13.95C376.391,133.079,376.467,130.92,375.521,128.714z
				 M292.616,408.283c-0.601,0-1.201-0.001-1.802,0c-1.209,0.004-2.396-0.134-3.542-0.538c-0.403-0.142-0.711-0.384-0.587-0.852
				c0.109-0.413,0.487-0.439,0.843-0.411c0.342,0.027,0.683,0.075,1.024,0.119c1.37,0.177,2.735,0.202,4.106-0.034
				c3.685-0.632,7.252-1.732,10.85-2.706c13.357-3.616,25.117-9.938,34.431-20.384c0.64-0.717,1.274-1.44,1.91-2.16
				c-3.469,1.646-6.756,3.626-11.024,3.075c0.543-0.476,0.96-0.563,1.369-0.63c2.542-0.417,4.819-1.47,6.961-2.856
				c7.692-4.976,13.62-11.687,18.645-19.225c6.059-9.088,8.577-19.004,6.53-29.894c-0.519-2.761-1.187-3.066-3.518-1.508
				c-0.262,0.175-0.516,0.342-0.817,0.111c-0.328-0.251-0.349-0.545-0.141-0.905c0.114-0.196,0.432-0.346,0.24-0.656
				c-5.309,4.701-11.662,6.198-18.549,6.131c-3.703-0.036-7.359-0.466-11.006-1.059c-5.367-0.873-10.701-1.817-15.944-3.355
				c-9.805-2.875-19.65-5.62-29.651-7.77c-4.146-0.891-8.266-1.864-12.487-2.364c-3.415-0.405-6.836-0.625-10.267-0.804
				c-6.306-0.329-12.611-0.888-18.908,0.09c-3.628,0.563-7.157,1.481-10.583,3.009c1.17,2.161,2.35,4.202,3.281,6.375
				c4.538,10.584,6.177,21.729,6.386,33.136c0.102,5.551-0.033,11.105,0.055,16.656c0.068,4.208,0.299,8.413,0.747,12.604
				c0.221,2.061,0.947,3.684,2.66,5.023c3.027,2.366,6.217,4.447,9.643,6.152c10.145,5.048,20.603,8.789,32.231,7.427
				C288.077,409.801,290.419,409.407,292.616,408.283z M116.157,333.814c0.61,1.127,0.004,2.12-0.011,3.118
				c-0.114,7.612,0.37,15.171,2.092,22.606c1.515,6.541,3.634,12.869,7.265,18.581c1.461,2.299,3.215,4.369,5.697,5.666
				c0.426,0.223,0.835,0.642,1.427,0.337c-0.449-1.919-1.696-3.436-2.546-5.177c0.891-0.771,1.353-0.111,1.812,0.446
				c2.323,2.821,4.628,5.658,6.955,8.475c9.199,11.136,20.888,18.202,34.974,21.312c1.978,0.437,3.996,0.706,6.077,0.013
				c-1.035-1.561-2.409-2.605-3.715-3.714c-0.288-0.245-0.533-0.527-0.296-0.872c0.239-0.348,0.602-0.212,0.922-0.033
				c0.572,0.321,1.058,0.852,1.891,0.818c-0.13-0.228-0.194-0.384-0.294-0.511c-4.214-5.33-5.504-11.508-5.298-18.131
				c0.143-4.602,0.633-9.128,2.054-13.554c2.633-8.202,6.596-15.821,10.151-23.617c3.117-6.833,4.992-13.965,5.454-21.434
				c0.473-7.669-0.64-15.244-1.643-22.826c-0.299-2.259-0.578-4.559,0.003-6.889c1.438-5.773,4.358-10.688,8.363-15.006
				c1.571-1.693,3.205-3.328,4.809-4.988c-4.036-1.813-8.308-3.05-12.684-3.936c-4.509-0.913-9.086-1.319-13.671-1.468
				c-4.496-0.146-9.001-0.17-13.389,1.184c-7.23,2.231-14.257,4.872-20.585,9.15c-7.244,4.897-13.537,10.778-18.355,18.073
				c-5.176,7.838-8.524,16.42-9.181,25.883c-0.211,3.033-0.35,6.099,0.357,9.138c0.275-0.41,0.456-0.832,0.575-1.271
				C115.505,334.693,115.582,334.183,116.157,333.814z M255.801,418.818c-0.577-1.025-1.372-1.402-2.053-1.892
				c-5.316-3.826-9.444-8.524-11.692-14.828c-2.745-7.698-3.232-15.687-3.387-23.715c-0.16-8.255,0.113-16.523-0.623-24.759
				c-0.682-7.632-2.153-15.119-5.007-22.262c-2.908-7.277-6.916-13.842-13.071-18.878c-6.74-5.514-14.488-8.805-23.082-10.019
				c-2.221-0.314-4.524-0.271-6.828,0.176c0.788,5.363,2.004,10.529,2.381,15.84c0.415,5.827,0.06,11.565-0.983,17.3
				c-1.289,7.091-4.27,13.539-7.355,19.956c-2.824,5.875-5.505,11.809-7.568,18.003c-0.147,0.44-0.486,1.179-0.342,1.296
				c1.097,0.895,0.885,2.254,1.302,3.367c4.411,11.757,11.001,21.866,21.402,29.28c7.023,5.006,14.262,9.42,23.027,10.543
				c2.143,0.275,4.278,0.756,6.527,0.623c-0.171-1.065-1.396-1.221-1.657-2.29c2.57,0.178,4.119,2.502,6.746,2.825
				c-1.927-1.809-4.165-2.918-5.498-5.141C236.87,418.18,245.782,421.31,255.801,418.818z M111.63,291.184
				c3.391-2.545,6.569-5.234,9.582-8.13c9.749-9.372,20.818-16.374,34.311-19.016c5.9-1.155,11.833-1.744,17.769-0.563
				c11.142,2.216,21.586,6.182,30.859,12.903c0.385,0.279,0.671,0.43,1.132,0.12c1.572-1.059,3.282-1.86,5.043-2.55
				c0.538-0.211,0.703-0.554,0.612-1.091c-0.144-0.843-0.219-1.701-0.418-2.53c-1.505-6.268-4.536-11.825-8.066-17.139
				c-4.073-6.131-9.267-11.201-15.817-14.477c-5.618-2.81-11.755-4.411-17.973-5.54c-7.023-1.275-14.088-2.358-21.005-4.161
				c-7.034-1.835-13.896-4.144-19.931-8.343c-7.574-5.268-12.523-12.123-12.905-21.712c-0.078-1.959-0.478-3.908-0.777-5.855
				c-0.078-0.51-0.357-1.019-0.939-1.108c-0.505-0.077-0.728,0.402-0.966,0.738c-1.45,2.042-2.604,4.212-3.035,6.728
				c-0.075,0.436,0.037,1.37-0.812,1.167c-0.724-0.173-0.439-0.961-0.326-1.449c0.181-0.785,0.241-1.533,0.063-2.493
				c-0.444,0.511-0.782,0.842-1.053,1.221c-2.033,2.845-3.505,5.988-4.807,9.214c-3.312,8.204-4.948,16.79-5.956,25.542
				c-0.674,5.853-0.611,11.633,0.781,17.376c0.095,0.394,0.217,0.956-0.305,1.132c-0.61,0.205-0.791-0.362-0.961-0.792
				c-0.488-1.232-0.951-2.475-1.466-3.823C91.26,255.162,102.24,283.279,111.63,291.184z M361.547,354.534
				c2.648-1.254,5.16-2.344,7.581-3.609c5.415-2.83,9.622-7.075,13.193-11.923c4.941-6.709,9.267-13.863,14.73-20.198
				c4.212-4.884,8.153-10.02,13.439-13.861c6.681-4.853,13.999-8.118,22.28-9.036c1.744-0.193,3.48-0.488,5.206-0.808
				c0.714-0.132,1.482-0.406,1.745-1.176c0.256-0.749-0.431-1.157-0.867-1.585c-1.719-1.688-3.401-3.424-5.227-4.992
				c-3.121-2.679-6.04-5.647-9.872-7.38c-0.414-0.187-1.064-0.279-0.837-0.885c0.231-0.617,0.837-0.211,1.257-0.137
				c0.54,0.095,1.057,0.319,1.588,0.473c0.5,0.144,0.997,0.422,1.63,0.101c-1.6-2.072-3.627-3.503-5.798-4.727
				c-8.505-4.796-17.641-7.919-27.118-10.119c-8.88-2.061-17.822-3.161-26.905-1.526c-3.026,0.545-5.997,1.33-8.838,2.621
				c0.823,4.181,1.253,8.303,0.743,12.478c-0.454,3.72-1.173,7.367-2.99,10.704c-0.415,0.762-0.884,1.504-1.788,1.759
				c-0.851,0.24-1.341-0.463-1.944-0.987c-0.452,1.174-0.684,2.272-1.271,3.234c-0.257,0.421-0.52,0.917-1.04,0.798
				c-0.592-0.135-0.658,0.211-0.762,0.566c-0.644,2.208-1.85,4.13-3.007,6.089c-0.757,1.282-1.789,2.406-2.183,3.91
				c-0.792,3.022-1.564,6.053-2.496,9.033c-2.029,6.485-4.223,12.921-5.493,19.671c0.561,0.276,1.146,0.35,1.75,0.352
				c2.276,0.005,4.556,0.138,6.818-0.259c5.065-0.889,9.87-2.29,13.315-6.505c0.412-0.504,0.856-1.313,1.654-0.906
				c0.867,0.442,0.353,1.279,0.257,1.968c-0.009,0.064,0.061,0.138,0.095,0.207c1.794,0.223,2.766,1.094,3.153,3.176
				c1.01,5.44,1.265,10.894,0.143,16.368C363.199,349.81,362.431,352.103,361.547,354.534z M145.602,150.301
				c-0.748,0.145-1.243,0.556-1.729,0.971c-6.964,5.954-12.668,12.927-17.143,20.932c-5.015,8.968-7.406,18.462-6.187,28.76
				c0.827,6.984,3.679,13.069,8.096,18.471c0.291,0.356,0.695,0.641,1.092,0.886c2.338,1.445,4.776,2.707,7.314,3.754
				c7.44,3.069,15.231,4.848,23.123,6.282c4.964,0.902,10.007,1.427,14.869,2.834c7.431,2.151,14.672,4.679,20.581,10.021
				c8.891,8.037,14.467,17.907,17.008,29.698c0.965-0.004,1.112-1.038,1.439-1.803c3.706-8.667,4.169-17.676,2.873-26.892
				c-1.421-10.094-6.25-18.304-13.887-24.855c-9.01-7.729-18.447-14.936-27.857-22.171c-7.099-5.459-13.279-11.656-17.007-20.01
				c-2.282-5.112-3.384-10.286-2.293-15.872c0.784-4.014,2.085-7.854,3.477-11.676c0.554-1.521,1.178-3.022,1.473-4.629
				c-1.441-0.252-3.9,0.457-5.74,1.553c-3.59,2.139-6.191,5.276-8.729,8.492c-0.432,0.547-0.712,1.682-1.675,1.183
				c-0.951-0.493-0.142-1.404-0.027-2.088C144.888,152.867,145.625,151.7,145.602,150.301z M184.579,155.805
				c-0.153,0.315-0.24,0.456-0.291,0.608c-0.081,0.242-0.157,0.488-0.204,0.738c-1.096,5.874-2.799,11.57-5.219,17.029
				c-2.413,5.442-4.698,10.947-7.509,16.204c-0.499,0.933-0.497,1.526,0.399,2.152c0.772,0.539,1.431,1.238,2.176,1.819
				c9.391,7.323,18.908,14.484,28.149,21.999c6.056,4.925,11.083,10.645,13.936,18.059c2.156,5.604,3.065,11.427,3.041,17.389
				c-0.016,4.031-0.181,8.073-1.158,12.02c-0.675,2.729-1.624,5.367-2.956,8.111c1.065-0.501,1.905-0.897,2.745-1.292
				c6.694-3.145,12.971-6.898,18.1-12.341c0.631-0.669,1.146-1.389,1.449-2.253c0.552-1.575,1.107-3.148,1.64-4.729
				c1.691-5.019,1.975-10.245,2.214-15.469c0.087-1.901,0.014-3.81,0.014-5.711c-2.008,0.245-3.873,0.529-5.75,0.676
				c-0.842,0.066-1.923,0.444-2.449-0.596c-0.503-0.996,0.349-1.677,0.859-2.385c1.749-2.428,4.214-4.011,6.716-5.569
				c-1.305-0.835-1.339-1.352-0.146-2.268c0.55-0.422,1.144-0.787,1.862-1.277c-3.086-0.931-6.019-0.847-8.978-0.667
				c-2.519,0.153-5.031,0.69-7.573,0.222c-0.747-0.138-1.51-0.279-1.704-1.126c-0.19-0.833,0.437-1.358,0.998-1.82
				c1.409-1.159,3.035-1.942,4.745-2.542c1.637-0.574,3.291-1.098,4.937-1.645c-1.568-0.14-3.083-0.389-4.583-0.707
				c-2.448-0.518-4.785-1.374-6.892-2.725c-1.825-1.17-1.707-2.322,0.247-3.244c0.617-0.291,1.261-0.544,1.916-0.731
				c4.139-1.182,8.096-2.798,11.88-4.854c0.728-0.395,0.959-0.733,0.703-1.597c-0.667-2.253-1.269-4.521-2.087-6.73
				c-0.32-0.865-0.785-1.477-1.594-1.9c-0.997-0.522-1.872-1.223-2.622-2.067c-0.842-0.947-0.572-1.682,0.664-2.046
				c0.743-0.219,1.446,0.096,2.301,0.019c-0.246-0.192-0.391-0.333-0.56-0.434c-5.137-3.066-9.348-7.13-12.863-11.941
				c-0.684-0.937-1.285-1.924-1.707-3.014c-0.262-0.677-0.395-1.353,0.104-1.948c0.499-0.594,1.185-0.58,1.898-0.441
				c0.732,0.142,1.344,0.553,2.017,0.824c0.902,0.363,1.682,1.017,2.835,1.285c-1.222-1.385-2.309-2.601-3.378-3.833
				c-3.1-3.572-5.14-7.919-8.449-11.361c-2.767-2.879-5.083-6.187-8.175-8.766c-1.997-1.665-4.023-3.295-6.798-4.28
				c0.667,1.472,1.165,2.717,2.012,3.792c0.398,0.504,0.798,1.005,1,1.637c0.099,0.31,0.199,0.594-0.152,0.775
				c-0.282,0.146-0.484-0.036-0.647-0.256c-1.586-2.139-3.767-3.639-5.785-5.3c-4.094-3.37-8.459-6.338-13.343-8.469
				c-0.702-0.306-1.414-0.741-2.379-0.541c2.749,4.297,5.162,8.632,6.185,13.581c1.133,5.478,1.144,13.653,0.005,14.702
				C185.609,159.099,186.325,157.084,184.579,155.805z M357.89,210.448c0.759,0,1.52-0.026,2.278,0.01
				c0.443,0.021,1.036-0.242,1.282,0.312c0.285,0.642-0.267,1.022-0.66,1.401c-1.696,1.635-3.723,2.751-5.857,3.695
				c-0.659,0.291-1.314,0.593-2.107,0.951c1.007,0.446,2.276,0.217,2.431,1.458c0.143,1.153-0.799,1.829-1.526,2.551
				c-0.212,0.211-0.469,0.377-0.699,0.571c-1.02,0.863-2.25,1.39-3.486,2.109c3.331,1.117,6.276,2.657,8.473,5.336
				c0.735,0.897,1.901,1.776,1.146,3.138c-0.795,1.432-2.254,0.889-3.503,0.877c-0.081-0.001-0.16-0.064-0.243-0.079
				c-1.21-0.224-2.421-0.444-3.719-0.681c0.248,0.562,0.708,0.649,1.049,0.878c1.8,1.205,3.457,2.564,4.673,4.383
				c0.492,0.735,1.259,1.509,0.678,2.44c-0.539,0.864-1.482,0.264-2.337,0.273c0.164,0.207,0.282,0.38,0.423,0.531
				c2.678,2.891,4.818,6.151,6.548,9.676c1.056,2.152,2.08,4.345,2.157,6.805c0.076,2.4-1.232,3.167-3.393,2.012
				c-1.173-0.627-2.296-1.345-3.454-2c-1.411-0.798-2.82-1.605-4.683-2.313c2.723,3.025,4.151,6.309,5.115,9.857
				c8.847-3.828,17.961-4.141,27.242-2.877c1.243,0.169,2.39,0.389,3.498-0.776c2.369-2.493,4.852-4.874,7.148-7.445
				c7.409-8.296,13.061-17.649,17.021-28.026c2.891-7.574,4.622-15.407,4.957-23.522c0.098-2.377-0.142-4.736-0.606-7.405
				c-0.504,0.822-0.755,1.379-0.969,1.979c-0.158,0.442-0.293,1.196-0.939,1.013c-0.708-0.201-0.317-0.865-0.184-1.314
				c0.648-2.182,0.489-4.327-0.281-6.435c-0.177-0.485-0.278-1.115-1.021-1.156c-0.708-0.039-0.856-0.518-0.949-1.137
				c-0.562-3.767-1.036-7.553-1.775-11.286c-1.241-6.272-3.348-12.238-6.898-17.624c-0.549-0.833-1.177-1.555-2.43-1.992
				c-3.253,6.817-6.596,13.578-12.079,19.057c2.437,0.437,2.939,1.554,1.705,3.409c-0.119,0.178-0.267,0.336-0.397,0.507
				c-1.885,2.479-4.33,4.273-7.021,5.775c-0.516,0.288-1.13,0.45-1.589,0.983c3.543,0.425,6.874,1.185,10.005,2.678
				c0.795,0.379,1.59,0.896,1.585,1.86c-0.006,1-0.776,1.598-1.63,1.978c-0.7,0.312-1.431,0.587-2.176,0.755
				c-1.752,0.393-3.532,0.662-5.279,1.073c-2.728,0.642-5.438,1.361-8.349,2.096c1.305,0.408,2.364,0.731,3.419,1.07
				c0.866,0.279,1.33,0.751,0.661,1.59c0.846,0.372,1.62,0.643,2.323,1.041c0.864,0.489,2.116,0.86,1.787,2.177
				c-0.312,1.248-1.608,1.259-2.576,1.232c-2.784-0.076-5.45,0.536-8.125,1.128C368.85,206.307,363.329,208.156,357.89,210.448z
				 M200.391,275.898c-0.2-0.138-0.395-0.283-0.601-0.412c-5.119-3.215-10.679-5.488-16.323-7.561
				c-8.957-3.29-18.088-4.407-27.552-2.422c-11.175,2.344-20.817,7.607-29.366,14.997c-4.813,4.161-9.271,8.733-14.504,12.406
				c-4.676,3.282-9.264,6.726-14.493,9.098c-4.165,1.89-8.552,2.711-13.157,1.954c-0.949-0.156-1.748-0.861-2.792-0.739
				c0.139,0.716,0.658,1.056,1.112,1.437c0.373,0.313,0.795,0.614,0.55,1.169c-0.208,0.473-0.688,0.455-1.123,0.434
				c-1.805-0.09-3.552-0.492-5.29-0.96c-3.964-1.067-7.294-3.363-10.726-5.471c-1.055-0.648-2.115-1.311-3.306-1.699
				c-1.293-0.421-1.86-0.017-1.965,1.317c-0.096,1.227,0.105,2.386,0.609,3.511c1.266,2.825,2.749,5.523,4.561,8.039
				c0.316,0.439,0.891,0.932-0.005,1.439c-0.838-1.025-1.559-2.088-2.641-2.829c-1.167-0.8-1.54-0.686-2.053,0.647
				c-0.162,0.422-0.196,0.832-0.185,1.259c0.052,1.993,0.528,3.914,1.212,5.76c4.07,10.988,10.649,20.226,19.515,27.868
				c6.209,5.352,13.345,9.212,20.628,12.822c4.67,2.314,9.637,3.683,14.966,4.313c-0.88-3.895-1.519-7.714-1.851-11.588
				c-0.339-3.952-0.156-7.907-0.261-11.947c-1.436,0.343-1.793-0.634-2.025-1.681c-1.111-5.014-0.624-10.052,0.369-14.961
				c3.971-19.63,15.428-33.698,32.714-43.35c2.803-1.565,5.938-2.198,8.818-3.508c3.975-1.809,8.109-2.976,12.468-3.327
				c3.95-0.318,7.891-0.32,11.851-0.034c3.854,0.278,7.677,0.692,11.459,1.475C194.18,274.009,197.296,274.88,200.391,275.898z
				 M257.572,235.229c-1.447,0.135-2.891,0.313-4.34,0.392c-1.374,0.075-2.757-0.008-4.023-0.622c-1.6-0.775-1.79-2.209-0.475-3.387
				c0.742-0.664,1.6-1.163,2.523-1.517c1.58-0.606,3.182-1.156,5.071-1.837c-4.833,0.308-9.317,0.903-13.917,1.669
				c0.339,8.371-0.234,16.599-3.21,24.532C245.192,247.938,250.593,240.894,257.572,235.229z M245.909,192.599
				c-3.266-0.577-6.198-1.388-9.331-2.68c1.229,2.679,1.891,5.201,2.606,7.797C241.625,196.251,243.843,194.748,245.909,192.599z"/>
			<path style="fill:#E77F7E;" d="M303.712,179.412c-0.704-0.871-0.661-2.044-1.516-2.811c-1.305-1.172-2.728-2.03-4.382-2.617
				c-2.087-0.74-4.259-1.304-5.936-2.952c-2.921-2.87-3.347-6.327-2.616-10.115c1.117-5.789,5.241-9.994,11.043-11.248
				c4.592-0.993,10.106,1.718,12.094,5.957c0.933,1.989,1.698,4.045,1.847,6.253c0.286,4.234-2.111,7.096-5.112,9.582
				c-1.02,0.845-2.179,1.504-3.167,2.418c-1.367,1.263-1.983,2.75-1.874,4.578C304.111,178.756,304.092,179.061,303.712,179.412z"/>
			<path style="fill:#916379;" d="M252.182,179.858c2.753-5.633,5.552-11.239,9.096-16.564c-0.767,0.021-1.605,0.236-2.009-0.612
				c-0.408-0.857,0.005-1.617,0.486-2.279c0.498-0.686,1.113-1.286,1.848-2.117c-1.424,0-2.686,0.036-3.945-0.009
				c-1.475-0.053-2.878-0.418-4.138-1.223c-0.522-0.333-1.003-0.754-0.944-1.429c0.062-0.704,0.553-1.175,1.191-1.395
				c0.842-0.29,1.716-0.486,2.696-0.755c-3.605-0.657-7.177-1.019-10.48-2.487c-1.575-0.7-3.106-1.491-4.426-2.608
				c-1.453-1.229-1.496-2.387-0.135-3.435c-3.415-1.586-6.613-3.477-9.846-5.305c-2.81-1.588-5.431-3.468-8.103-5.269
				c-0.961-0.647-1.972-1.21-3.049-1.655c-0.76-0.313-1.499-0.319-2.247-0.002c-0.344,0.146-0.726,0.444-0.96-0.11
				c-0.188-0.447,0.114-0.738,0.452-0.952c1.061-0.671,2.202-0.638,3.35-0.304c1.93,0.561,3.536,1.73,5.182,2.817
				c6.562,4.332,13.228,8.459,20.62,11.294c4.461,1.711,9.106,2.623,13.762,3.535c0.501,0.098,1.121,0.087,1.327,1.036
				c-6.823-0.418-13.281-2.133-19.966-3.713c0.362,0.896,1.002,1.223,1.569,1.594c3.15,2.062,6.699,3.023,10.352,3.656
				c2.276,0.394,4.566,0.7,6.845,1.079c0.471,0.078,1.143,0.053,1.155,0.77c0.012,0.726-0.605,0.693-1.118,0.765
				c-1.694,0.239-3.385,0.502-5.08,0.736c-0.674,0.093-1.346,0.157-1.891,0.715c0.322,0.779,1.06,0.886,1.678,1.049
				c2.844,0.746,5.688,0.645,8.513-0.143c0.33-0.092,0.653-0.217,0.988-0.283c0.429-0.085,0.772,0.08,0.939,0.493
				c0.183,0.45-0.056,0.749-0.436,0.941c-1,0.508-1.926,1.126-2.814,1.807c-0.793,0.608-1.414,1.352-2.005,2.369
				c1.353-0.19,2.259-0.88,3.201-1.511c0.396-0.265,0.807-0.813,1.329-0.235c0.42,0.466,0.08,0.917-0.221,1.264
				c-4.695,5.426-8.102,11.7-11.76,17.809C253.004,179.504,252.894,179.931,252.182,179.858z"/>
			<path style="fill:#916379;" d="M359.323,92.112c-1.972-1.943-3.76-1.518-4.766,1.231c-1.427,3.9-2.711,7.852-4.152,11.747
				c-1.774,4.796-3.932,9.416-6.754,13.744c1.407,1.751,0.913,3.651,0.409,5.504c-1.247,4.582-3.916,8.257-7.436,11.363
				c-0.322,0.284-0.652,0.56-0.97,0.849c-0.051,0.046-0.057,0.14-0.095,0.24c0.531,0.018,1.133-0.511,1.555,0.087
				c0.448,0.635,0.194,1.311-0.104,1.945c-0.751,1.595-2.177,2.487-3.774,3.447c3.287,1.57,6.504,2.961,9.224,5.317
				c-0.628,0.537-0.954,0.25-1.273,0.064c-2.896-1.688-5.95-3.028-9.089-4.191c-0.604-0.224-1.486-0.282-1.503-1.174
				c-0.015-0.84,0.838-0.871,1.387-1.125c2.414-1.12,3.41-1.901,4.282-3.523c-1.526,0.382-2.678,1.256-3.929,1.917
				c-0.43,0.228-0.919,0.754-1.333,0.129c-0.349-0.528,0.276-0.825,0.575-1.138c2.465-2.573,5.376-4.714,7.43-7.685
				c1.816-2.627,3.387-5.369,4.07-8.539c0.145-0.673,0.155-1.33,0.008-2.361c-3.054,3.669-5.325,7.729-9.463,10.013
				c-0.405-0.713,0.027-0.973,0.304-1.262c6.37-6.639,10.848-14.444,14.221-22.942c1.597-4.025,3.241-8.033,4.905-12.031
				c1.09-2.619,2.542-3.725,4.598-3.633C358.788,90.152,359.358,90.839,359.323,92.112z"/>
			<path style="fill:#916379;" d="M309.076,208.069c-1.663,3.284-4.031,5.677-7.505,6.568c-2.861,0.734-5.714,0.571-8.085-1.604
				c-0.913-0.837-0.953-1.812-0.351-2.782c0.652-1.049,1.635-0.952,2.611-0.482c1.305,0.628,2.519,1.415,3.962,1.787
				c1.23,0.317,2.256,0.086,3.306-0.503c1.515-0.85,2.778-2.004,4.034-3.179c1.094-1.024,2.121-1.548,3.749-0.675
				c1.878,1.007,3.903,1.96,6.239,1.221c1.306-0.413,2.182-1.314,3.125-2.179c0.158-0.145,0.291-0.32,0.458-0.453
				c0.76-0.606,1.32-1.752,2.594-1.052c0.891,0.489,1.138,1.807,0.649,3.249c-0.837,2.472-4.089,4.167-6.929,3.657
				C314.051,211.125,311.514,209.863,309.076,208.069z"/>
			<path style="fill:#916379;" d="M290.364,197.809c-1.989,1.255-4.036,0.933-5.921,0.654c-3.833-0.567-7.665-1.228-11.418-2.232
				c-0.691-0.185-1.771-0.063-1.826-1.043c-0.06-1.068,1.042-0.999,1.735-1.108c5.069-0.798,10.076-0.758,14.858,1.423
				C288.824,195.973,289.836,196.546,290.364,197.809z"/>
			<path style="fill:#916379;" d="M337.004,180.542c-0.034,0.594-0.342,0.905-0.619,1.23c-3.023,3.537-6.921,5.813-11.09,7.702
				c-0.813,0.368-1.614,0.763-2.429,1.127c-0.335,0.15-0.706,0.474-1.056,0.111c-0.363-0.376-0.142-0.858,0.041-1.208
				c0.7-1.339,1.607-2.555,2.712-3.571c2.909-2.676,6.286-4.584,10.043-5.81c0.565-0.184,1.152-0.337,1.76-0.238
				C336.8,179.954,337.096,180.16,337.004,180.542z"/>
			<path style="fill:#916379;" d="M308.405,193.402c1.066-0.067,2.375-0.091,2.878,1.188c0.517,1.314,0.103,2.594-0.932,3.641
				c-2.912,2.944-5.374,2.114-8.16-0.354c-1.03-0.913-0.645-2.354,0.69-3.094C304.546,193.858,306.34,193.306,308.405,193.402z"/>
			<path style="fill:#E77F7E;" d="M321.766,177.323c0.018,1.831-2.08,4.407-3.839,4.654c-1.02,0.143-1.601-0.477-1.943-1.344
				c-0.667-1.693,1.204-5.13,2.991-5.526C320.681,174.73,321.749,175.577,321.766,177.323z"/>
			<path style="fill:#E77F7E;" d="M292.355,188.23c-1.237,0.032-2.367-0.316-3.367-1.034c-0.653-0.469-1.108-1.096-1.044-1.947
				c0.068-0.901,0.746-1.331,1.479-1.604c1.81-0.675,3.445-0.263,4.886,0.967c0.743,0.634,1.092,1.496,0.786,2.418
				c-0.31,0.935-1.233,1.085-2.097,1.196C292.786,188.253,292.569,188.23,292.355,188.23z"/>
			<path style="fill:#916379;" d="M320.141,224.497c0.238,0.76-0.298,1.019-0.692,1.307c-2.831,2.063-5.918,3.133-9.504,2.793
				c-2.216-0.21-4.46-0.135-6.657-0.596c-0.717-0.15-1.426-0.348-1.989-0.848c-0.272-0.242-0.391-0.573-0.206-0.931
				c0.183-0.353,0.496-0.293,0.785-0.185c5.991,2.242,11.764,1.56,17.38-1.283c0.226-0.115,0.471-0.194,0.709-0.284
				C319.999,224.457,320.044,224.48,320.141,224.497z"/>
			<path style="fill:#916379;" d="M213.026,291.028c-3.198,1.992-6.082,4.069-8.584,6.648c1.25-2.867,3.52-4.758,6.069-6.357
				C211.155,290.916,211.872,290.319,213.026,291.028z"/>
		</g>
	</g>
</g>
</svg>
